<?xml version="1.0" encoding="UTF-8" standalone="no"?>
<!DOCTYPE svg PUBLIC "-//W3C//DTD SVG 1.1//EN"
 "http://www.w3.org/Graphics/SVG/1.1/DTD/svg11.dtd">
<!-- Generated by graphviz version 2.40.1 (20161225.0304)
 -->
<!-- Title: project Pages: 1 -->
<svg width="444pt" height="188pt"
 viewBox="0.00 0.00 443.99 188.00" xmlns="http://www.w3.org/2000/svg" xmlns:xlink="http://www.w3.org/1999/xlink">
<g id="graph0" class="graph" transform="scale(1 1) rotate(0) translate(4 184)">
<title>project</title>
<polygon fill="#ffffff" stroke="transparent" points="-4,4 -4,-184 439.9917,-184 439.9917,4 -4,4"/>
<!-- html&#45;renderer -->
<g id="node1" class="node">
<title>html&#45;renderer</title>
<ellipse fill="none" stroke="#000000" cx="64.1207" cy="-90" rx="64.2417" ry="18"/>
<text text-anchor="middle" x="64.1207" y="-85.8" font-family="Times,serif" font-size="14.00" fill="#000000">html&#45;renderer</text>
</g>
<!-- html&#45;utils -->
<g id="node2" class="node">
<title>html&#45;utils</title>
<ellipse fill="none" stroke="#000000" cx="64.1207" cy="-18" rx="48.6888" ry="18"/>
<text text-anchor="middle" x="64.1207" y="-13.8" font-family="Times,serif" font-size="14.00" fill="#000000">html&#45;utils</text>
</g>
<!-- html&#45;renderer&#45;&gt;html&#45;utils -->
<g id="edge1" class="edge">
<title>html&#45;renderer&#45;&gt;html&#45;utils</title>
<path fill="none" stroke="#000000" d="M64.1207,-71.8314C64.1207,-64.131 64.1207,-54.9743 64.1207,-46.4166"/>
<polygon fill="#000000" stroke="#000000" points="67.6208,-46.4132 64.1207,-36.4133 60.6208,-46.4133 67.6208,-46.4132"/>
</g>
<!-- mobile -->
<g id="node3" class="node">
<title>mobile</title>
<ellipse fill="none" stroke="#000000" cx="292.1207" cy="-162" rx="37.7198" ry="18"/>
<text text-anchor="middle" x="292.1207" y="-157.8" font-family="Times,serif" font-size="14.00" fill="#000000">mobile</text>
</g>
<!-- ui -->
<g id="node4" class="node">
<title>ui</title>
<ellipse fill="none" stroke="#000000" cx="211.1207" cy="-90" rx="27" ry="18"/>
<text text-anchor="middle" x="211.1207" y="-85.8" font-family="Times,serif" font-size="14.00" fill="#000000">ui</text>
</g>
<!-- mobile&#45;&gt;ui -->
<g id="edge2" class="edge">
<title>mobile&#45;&gt;ui</title>
<path fill="none" stroke="#000000" d="M274.1442,-146.0209C262.6743,-135.8254 247.6704,-122.4886 235.1796,-111.3856"/>
<polygon fill="#000000" stroke="#000000" points="237.196,-108.4952 227.3966,-104.4674 232.5454,-113.7271 237.196,-108.4952"/>
</g>
<!-- platform&#45;abstraction -->
<g id="node5" class="node">
<title>platform&#45;abstraction</title>
<ellipse fill="none" stroke="#000000" cx="346.1207" cy="-90" rx="89.7421" ry="18"/>
<text text-anchor="middle" x="346.1207" y="-85.8" font-family="Times,serif" font-size="14.00" fill="#000000">platform&#45;abstraction</text>
</g>
<!-- mobile&#45;&gt;platform&#45;abstraction -->
<g id="edge3" class="edge">
<title>mobile&#45;&gt;platform&#45;abstraction</title>
<path fill="none" stroke="#000000" d="M304.918,-144.937C311.3828,-136.3173 319.3662,-125.6727 326.5791,-116.0555"/>
<polygon fill="#000000" stroke="#000000" points="329.4618,-118.0453 332.6618,-107.9453 323.8617,-113.8453 329.4618,-118.0453"/>
</g>
<!-- json&#45;client -->
<g id="node6" class="node">
<title>json&#45;client</title>
<ellipse fill="none" stroke="#000000" cx="196.1207" cy="-18" rx="51.6016" ry="18"/>
<text text-anchor="middle" x="196.1207" y="-13.8" font-family="Times,serif" font-size="14.00" fill="#000000">json&#45;client</text>
</g>
<!-- ui&#45;&gt;json&#45;client -->
<g id="edge4" class="edge">
<title>ui&#45;&gt;json&#45;client</title>
<path fill="none" stroke="#000000" d="M207.3356,-71.8314C205.7313,-64.131 203.8237,-54.9743 202.0409,-46.4166"/>
<polygon fill="#000000" stroke="#000000" points="205.4229,-45.4892 199.9568,-36.4133 198.57,-46.9169 205.4229,-45.4892"/>
</g>
<!-- utilities -->
<g id="node7" class="node">
<title>utilities</title>
<ellipse fill="none" stroke="#000000" cx="326.1207" cy="-18" rx="40.0185" ry="18"/>
<text text-anchor="middle" x="326.1207" y="-13.8" font-family="Times,serif" font-size="14.00" fill="#000000">utilities</text>
</g>
<!-- ui&#45;&gt;utilities -->
<g id="edge5" class="edge">
<title>ui&#45;&gt;utilities</title>
<path fill="none" stroke="#000000" d="M230.8899,-77.6228C248.2316,-66.7654 273.7711,-50.7754 294.0371,-38.0871"/>
<polygon fill="#000000" stroke="#000000" points="296.0255,-40.9717 302.644,-32.6985 292.3108,-35.0386 296.0255,-40.9717"/>
</g>
<!-- platform&#45;abstraction&#45;&gt;utilities -->
<g id="edge6" class="edge">
<title>platform&#45;abstraction&#45;&gt;utilities</title>
<path fill="none" stroke="#000000" d="M341.0739,-71.8314C338.8781,-63.9266 336.2561,-54.4872 333.8253,-45.7365"/>
<polygon fill="#000000" stroke="#000000" points="337.1455,-44.6118 331.0967,-35.9134 330.4009,-46.4854 337.1455,-44.6118"/>
</g>
<!-- web -->
<g id="node8" class="node">
<title>web</title>
<ellipse fill="none" stroke="#000000" cx="156.1207" cy="-162" rx="27.2467" ry="18"/>
<text text-anchor="middle" x="156.1207" y="-157.8" font-family="Times,serif" font-size="14.00" fill="#000000">web</text>
</g>
<!-- web&#45;&gt;html&#45;renderer -->
<g id="edge7" class="edge">
<title>web&#45;&gt;html&#45;renderer</title>
<path fill="none" stroke="#000000" d="M138.3822,-148.1177C125.8987,-138.348 108.8814,-125.0301 94.2864,-113.6079"/>
<polygon fill="#000000" stroke="#000000" points="96.0577,-110.5497 86.0255,-107.1429 91.7435,-116.0623 96.0577,-110.5497"/>
</g>
<!-- web&#45;&gt;ui -->
<g id="edge9" class="edge">
<title>web&#45;&gt;ui</title>
<path fill="none" stroke="#000000" d="M168.6011,-145.6621C175.6332,-136.4564 184.5554,-124.7764 192.409,-114.4953"/>
<polygon fill="#000000" stroke="#000000" points="195.4007,-116.3446 198.6898,-106.2733 189.838,-112.0953 195.4007,-116.3446"/>
</g>
<!-- web&#45;&gt;json&#45;client -->
<g id="edge8" class="edge">
<title>web&#45;&gt;json&#45;client</title>
<path fill="none" stroke="#000000" d="M159.0555,-143.8543C162.2287,-125.5222 167.8272,-96.488 175.1207,-72 177.7211,-63.2694 181.1097,-53.9579 184.4034,-45.5693"/>
<polygon fill="#000000" stroke="#000000" points="187.6734,-46.8187 188.1735,-36.2356 181.1829,-44.1969 187.6734,-46.8187"/>
</g>
</g>
</svg>
